HIERARCHY
ROOT Hips
{
	OFFSET 0.373046 105.988304 -1.111724
	CHANNELS 6 Xposition Yposition Zposition Xrotation Yrotation Zrotation
	JOINT Chest
	{
		OFFSET 0.160640 13.573860 1.370694
		CHANNELS 3 Xrotation Yrotation Zrotation
		JOINT Chest2
		{
			OFFSET -1.260825 21.295502 1.994665
			CHANNELS 3 Xrotation Yrotation Zrotation
			JOINT Chest3
			{
				OFFSET -0.826283 14.901733 0.274635
				CHANNELS 3 Xrotation Yrotation Zrotation
				JOINT Neck
				{
					OFFSET -0.010474 17.216522 1.485648
					CHANNELS 3 Xrotation Yrotation Zrotation
					JOINT Head
					{
						OFFSET -0.464879 10.440170 0.783823
						CHANNELS 3 Xrotation Yrotation Zrotation
						End Site
						{
							OFFSET -0.464076 10.445419 0.710926
						}
					}
				}
				JOINT LeftCollar
				{
					OFFSET 4.407121 12.992020 3.686357
					CHANNELS 3 Xrotation Yrotation Zrotation
					JOINT LeftUpArm
					{
						OFFSET 13.978285 -5.397659 -9.163643
						CHANNELS 3 Xrotation Yrotation Zrotation
						JOINT LeftLowArm
						{
							OFFSET 4.342115 -33.478394 -0.267129
							CHANNELS 3 Xrotation Yrotation Zrotation
							JOINT LeftHand
							{
								OFFSET 0.051487 -28.089195 10.580256
								CHANNELS 3 Xrotation Yrotation Zrotation
								End Site
								{
									OFFSET 0.011261 -6.139061 2.312376
								}
							}
						}
					}
				}
				JOINT RightCollar
				{
					OFFSET -3.985160 12.932129 4.322854
					CHANNELS 3 Xrotation Yrotation Zrotation
					JOINT RightUpArm
					{
						OFFSET -14.744070 -6.256882 -7.208348
						CHANNELS 3 Xrotation Yrotation Zrotation
						JOINT RightLowArm
						{
							OFFSET -5.164362 -33.353470 -0.780979
							CHANNELS 3 Xrotation Yrotation Zrotation
							JOINT RightHand
							{
								OFFSET 2.116673 -28.296463 9.786972
								CHANNELS 3 Xrotation Yrotation Zrotation
								End Site
								{
									OFFSET 0.462620 -6.184479 2.139033
								}
							}
						}
					}
				}
			}
		}
	}
	JOINT LeftUpLeg
	{
		OFFSET 10.020185 -0.114311 -0.044387
		CHANNELS 3 Xrotation Yrotation Zrotation
		JOINT LeftLowLeg
		{
			OFFSET 3.346294 -47.092426 -3.885335
			CHANNELS 3 Xrotation Yrotation Zrotation
			JOINT LeftFoot
			{
				OFFSET -0.300664 -43.307194 -11.178791
				CHANNELS 3 Xrotation Yrotation Zrotation
				JOINT LeftToe
				{
					OFFSET 0.727195 -15.623641 17.746344
					CHANNELS 3 Xrotation Yrotation Zrotation
					End Site
					{
						OFFSET 2.200262 -0.840467 23.537447
					}
				}
			}
		}
	}
	JOINT RightUpLeg
	{
		OFFSET -10.020191 0.114113 0.044367
		CHANNELS 3 Xrotation Yrotation Zrotation
		JOINT RightLowLeg
		{
			OFFSET -1.289510 -47.284271 2.558751
			CHANNELS 3 Xrotation Yrotation Zrotation
			JOINT RightFoot
			{
				OFFSET 0.165418 -42.723190 -13.239399
				CHANNELS 3 Xrotation Yrotation Zrotation
				JOINT RightToe
				{
					OFFSET 0.066578 -16.900301 16.550896
					CHANNELS 3 Xrotation Yrotation Zrotation
					End Site
					{
						OFFSET -2.598176 -2.727184 23.353117
					}
				}
			}
		}
	}
}
MOTION
Frames: 11
Frame Time: 0.033333
14.128657 96.984032 -0.992746 7.582753 -25.095450 17.215316 3.870541 -0.035972 7.116179 -15.266526 5.917000 -8.387873 7.969566 5.978355 1.201623 8.287042 -16.644561 14.235095 -0.000000 0.000000 0.000001 -6.017154 0.324717 39.872875 -1.994492 6.378218 77.500572 16.776136 22.212416 10.464306 0.000005 0.000003 -0.000001 -9.885826 7.118549 -62.180444 -14.052273 12.333123 -86.675162 -29.639210 5.089265 -110.004780 0.000000 -0.000002 -0.000001 -32.144769 5.209249 -18.845452 24.526808 -6.357128 -17.238243 -12.457603 25.728076 12.240924 -0.000000 0.000000 -0.000002 -21.713615 6.793354 -30.240082 39.749242 20.107783 45.422534 21.788698 -4.775039 10.293868 -0.000001 0.000000 0.000003 
14.262410 96.932144 -1.012935 7.730267 -25.017311 17.100541 3.984581 -0.070909 7.403677 -15.819568 5.781444 -8.057256 8.549002 6.336231 0.977945 7.956504 -16.870852 14.307814 0.000001 -0.000001 0.000002 -6.072765 0.636307 39.888626 -1.578870 7.103083 77.255040 16.382979 21.936363 10.556763 -0.000002 -0.000002 -0.000000 -9.603457 7.255856 -62.147147 -13.545915 11.480160 -87.034683 -29.675693 5.226716 -110.154456 0.000001 -0.000004 -0.000002 -32.159464 5.117376 -18.884472 24.693284 -6.313050 -17.285887 -12.040703 25.638452 12.144115 0.000000 0.000000 0.000001 -21.444339 6.802414 -30.356093 39.584129 19.966354 45.654549 21.936047 -5.027675 10.337453 -0.000000 0.000006 0.000002 
14.401127 96.880249 -1.043531 7.852691 -25.074418 17.147600 4.286949 -0.086516 7.463417 -15.035493 5.956161 -8.319556 7.562316 6.141009 1.259903 7.502473 -17.096657 14.703814 -0.000000 -0.000005 0.000004 -5.690264 0.268350 39.899380 -1.067023 8.214426 77.082960 16.537408 21.892599 10.650636 -0.000003 0.000003 -0.000003 -9.481150 7.224715 -62.016007 -13.235076 11.392045 -87.225416 -29.064313 4.228229 -110.792287 -0.000001 -0.000003 -0.000003 -32.495912 5.012991 -18.717696 24.479789 -6.348850 -17.581527 -11.887647 25.862194 12.208199 0.000000 0.000001 0.000002 -21.694873 6.963578 -30.415761 39.380740 20.019937 46.018939 22.021814 -5.163170 10.505920 -0.000002 0.000003 0.000003 
14.531916 96.831764 -1.070056 7.195774 -24.784115 16.958197 4.454089 -0.139621 7.730633 -15.894337 5.737379 -7.912162 8.704650 6.513693 0.862591 7.961224 -17.345803 15.024842 -0.000003 0.000001 0.000002 -5.431693 0.524859 39.749389 -0.539260 8.303998 76.594745 16.506298 21.600740 11.201152 -0.000001 0.000005 -0.000002 -9.826194 6.249379 -61.813799 -12.748559 12.335397 -87.254799 -28.029204 3.053849 -111.766285 0.000003 -0.000002 -0.000001 -31.641599 5.051634 -19.178290 24.762837 -6.254700 -17.415652 -12.035440 25.087049 12.006903 0.000000 -0.000000 0.000000 -21.145578 6.885043 -30.847938 39.644194 19.986563 46.185695 21.723668 -4.719006 9.943077 0.000000 -0.000004 0.000002 
14.663957 96.788078 -1.097191 7.517732 -24.700595 16.937141 4.419926 -0.188067 7.844287 -14.182329 5.834076 -8.346122 6.705615 6.070089 1.314267 7.944897 -17.529793 15.388669 0.000000 0.000004 0.000003 -5.243155 0.843088 39.750581 -0.259708 8.166318 76.490380 16.767008 21.041147 11.288635 0.000001 0.000002 -0.000001 -9.466310 6.355224 -61.777579 -12.296102 11.507084 -87.417576 -27.005977 2.175465 -112.307851 0.000001 0.000001 -0.000004 -31.700694 5.358425 -19.283151 24.745352 -6.325642 -16.928337 -11.657410 24.739688 11.711792 0.000000 -0.000000 0.000000 -21.498478 6.817321 -30.793966 39.707021 19.988591 46.189301 22.167072 -5.252834 10.319846 -0.000002 0.000001 0.000003 
14.790621 96.746384 -1.124502 7.738579 -24.579783 16.905119 4.104195 -0.238804 8.073978 -12.409568 6.102652 -8.976864 4.937535 5.802697 1.919753 8.430849 -17.638714 15.578032 -0.000001 0.000001 -0.000000 -4.985583 0.549413 39.706874 -0.016370 8.585938 76.465832 16.857387 20.617068 11.081830 0.000000 0.000001 0.000002 -9.070585 6.715163 -61.682011 -12.108483 11.379115 -87.766722 -26.997062 2.751496 -112.147697 -0.000001 0.000000 0.000000 -31.985687 5.501124 -19.193171 24.989977 -6.397494 -16.857330 -11.321938 24.819992 11.530338 -0.000000 -0.000001 0.000003 -21.895442 6.856989 -30.773581 39.629314 19.967204 46.368385 22.077173 -5.002537 10.077473 0.000001 0.000003 0.000004 
14.903136 96.701721 -1.149847 8.222965 -24.452458 16.903309 4.395970 -0.220494 8.036602 -11.951888 6.241326 -9.246698 4.239540 5.539116 2.295089 8.445187 -17.509508 15.549202 -0.000001 0.000004 0.000001 -5.280619 1.319203 39.980253 -0.024718 8.421972 76.020224 16.003570 20.334057 11.133626 -0.000002 0.000000 0.000001 -9.065534 6.590219 -61.622704 -11.985975 11.065507 -87.701746 -28.306111 5.269883 -111.461871 -0.000000 -0.000004 -0.000001 -32.043566 5.576112 -19.193837 24.636313 -6.485368 -16.619665 -11.366955 24.758462 11.399881 0.000000 0.000000 0.000005 -22.165875 6.942108 -30.703340 38.989841 19.944173 46.926835 22.477026 -5.150395 10.349709 -0.000000 0.000002 0.000002 
15.015257 96.658783 -1.173657 7.769928 -24.311946 16.801171 4.334304 -0.201039 8.290407 -12.310026 6.150466 -9.042762 4.642021 6.231280 2.063079 8.623711 -17.809278 15.884510 -0.000002 0.000003 -0.000001 -5.169087 0.220323 39.897245 -0.201979 8.942542 76.067871 15.820885 20.795558 11.009521 0.000001 0.000001 0.000001 -9.915235 5.870267 -61.771821 -12.714307 12.285313 -87.078068 -28.903650 5.564504 -110.835262 0.000003 -0.000005 -0.000000 -31.817272 5.507538 -19.314252 24.764335 -6.554816 -16.794800 -11.695462 24.823047 11.419964 0.000001 -0.000000 -0.000002 -22.003379 6.998887 -30.771498 39.069290 20.233802 46.948234 22.161616 -4.965344 10.376334 0.000000 -0.000002 0.000001 
15.117996 96.613914 -1.197647 7.649547 -24.385789 16.807014 4.361680 -0.182553 8.351684 -12.253583 6.120940 -8.957271 4.799883 6.304851 1.970746 8.609404 -17.813347 15.904121 -0.000001 0.000001 0.000000 -5.381862 0.070397 39.861940 -0.330918 8.901919 76.031603 15.522850 21.036945 11.003046 -0.000000 -0.000001 0.000004 -10.237038 5.708312 -61.716845 -12.869671 12.508210 -87.121815 -29.632714 6.264371 -110.267455 -0.000000 -0.000000 -0.000002 -31.783455 5.393857 -19.380583 24.897028 -6.501611 -17.020533 -12.177309 24.967869 11.703808 -0.000000 0.000000 0.000002 -21.948154 7.106265 -30.897040 39.185792 20.363449 46.996209 22.180800 -4.915903 10.474334 -0.000000 0.000001 0.000003 
15.219830 96.575073 -1.229941 6.390001 -24.666933 16.795485 7.441583 0.075627 7.162083 -15.340320 5.475609 -7.784341 6.781784 6.189155 1.327428 7.760973 -17.664227 15.529596 -0.000001 0.000002 0.000001 -6.236935 0.524335 40.325334 -1.435613 8.893022 76.134561 15.634600 21.944892 10.208801 0.000000 0.000001 -0.000003 -10.276298 6.521557 -61.678896 -13.975842 11.873954 -87.248550 -32.814975 9.638133 -107.545406 0.000002 0.000000 -0.000000 -31.137733 5.148279 -19.593782 24.802621 -5.995481 -17.245456 -12.352410 24.048229 11.467418 -0.000000 -0.000000 0.000000 -21.063678 6.902308 -31.280180 40.146397 20.324456 45.917501 20.423300 -4.242647 9.878314 -0.000001 -0.000002 0.000003 
15.314236 96.541550 -1.264512 6.530358 -24.874618 16.957458 8.476568 0.135126 6.578645 -16.649687 5.250299 -7.371054 7.780622 6.512575 1.209719 7.276938 -17.792421 15.415153 -0.000003 -0.000005 0.000005 -6.624267 1.154113 40.538313 -1.755167 8.756880 76.018954 15.136503 21.975534 9.950224 -0.000000 0.000001 -0.000002 -10.231194 6.728478 -61.409589 -14.059602 11.085751 -87.672554 -33.035532 9.601159 -107.819283 -0.000003 -0.000000 -0.000002 -31.684903 5.051355 -19.377878 24.649126 -5.767006 -17.473774 -12.385400 24.166490 11.649016 -0.000000 -0.000000 0.000003 -21.603198 7.053775 -31.022651 40.963926 20.311217 45.039449 20.145908 -3.578783 9.458903 0.000001 -0.000001 0.000001 
